<mxfile host="app.diagrams.net" agent="Mozilla/5.0 (Windows NT 10.0; Win64; x64) AppleWebKit/537.36 (KHTML, like Gecko) Chrome/128.0.0.0 Safari/537.36 Edg/128.0.0.0" version="24.7.14">
  <diagram name="Page-1" id="-LdqS_89pc9tKXhwtrNH">
    <mxGraphModel dx="1042" dy="567" grid="1" gridSize="10" guides="1" tooltips="1" connect="1" arrows="1" fold="1" page="1" pageScale="1" pageWidth="800" pageHeight="1000" math="0" shadow="0">
      <root>
        <mxCell id="0" />
        <mxCell id="1" parent="0" />
        <mxCell id="xKRhnp7fP2KBttcFIjON-1" value="Draft" style="rounded=1;whiteSpace=wrap;html=1;" vertex="1" parent="1">
          <mxGeometry x="70" y="99" width="120" height="60" as="geometry" />
        </mxCell>
        <mxCell id="xKRhnp7fP2KBttcFIjON-3" value="Devis" style="rounded=1;whiteSpace=wrap;html=1;" vertex="1" parent="1">
          <mxGeometry x="310" y="99" width="120" height="60" as="geometry" />
        </mxCell>
        <mxCell id="xKRhnp7fP2KBttcFIjON-4" value="Proforma" style="rounded=1;whiteSpace=wrap;html=1;" vertex="1" parent="1">
          <mxGeometry x="560" y="99" width="120" height="60" as="geometry" />
        </mxCell>
        <mxCell id="xKRhnp7fP2KBttcFIjON-5" value="Commande" style="rounded=1;whiteSpace=wrap;html=1;" vertex="1" parent="1">
          <mxGeometry x="310" y="249" width="120" height="60" as="geometry" />
        </mxCell>
        <mxCell id="xKRhnp7fP2KBttcFIjON-6" value="Bon de livraison" style="rounded=1;whiteSpace=wrap;html=1;" vertex="1" parent="1">
          <mxGeometry x="560" y="249" width="120" height="60" as="geometry" />
        </mxCell>
        <mxCell id="xKRhnp7fP2KBttcFIjON-7" value="Facture Brouillon" style="rounded=1;whiteSpace=wrap;html=1;" vertex="1" parent="1">
          <mxGeometry x="310" y="390" width="120" height="60" as="geometry" />
        </mxCell>
        <mxCell id="xKRhnp7fP2KBttcFIjON-8" value="Facture non&amp;nbsp;&lt;span style=&quot;font-size:12.0pt;mso-bidi-font-size:&lt;br/&gt;11.0pt;line-height:150%;font-family:&amp;quot;Calibri&amp;quot;,sans-serif;mso-ascii-theme-font:&lt;br/&gt;minor-latin;mso-fareast-font-family:Calibri;mso-fareast-theme-font:minor-latin;&lt;br/&gt;mso-hansi-theme-font:minor-latin;mso-bidi-font-family:&amp;quot;Times New Roman&amp;quot;;&lt;br/&gt;mso-bidi-theme-font:minor-bidi;mso-ansi-language:FR;mso-fareast-language:EN-US;&lt;br/&gt;mso-bidi-language:AR-SA&quot; lang=&quot;FR&quot;&gt;Payée&lt;/span&gt;" style="rounded=1;whiteSpace=wrap;html=1;" vertex="1" parent="1">
          <mxGeometry x="310" y="530" width="120" height="60" as="geometry" />
        </mxCell>
        <mxCell id="xKRhnp7fP2KBttcFIjON-9" value="&lt;span style=&quot;font-size:12.0pt;mso-bidi-font-size:&lt;br/&gt;11.0pt;line-height:150%;font-family:&amp;quot;Calibri&amp;quot;,sans-serif;mso-ascii-theme-font:&lt;br/&gt;minor-latin;mso-fareast-font-family:Calibri;mso-fareast-theme-font:minor-latin;&lt;br/&gt;mso-hansi-theme-font:minor-latin;mso-bidi-font-family:&amp;quot;Times New Roman&amp;quot;;&lt;br/&gt;mso-bidi-theme-font:minor-bidi;mso-ansi-language:FR;mso-fareast-language:EN-US;&lt;br/&gt;mso-bidi-language:AR-SA&quot; lang=&quot;FR&quot;&gt;Reçu de paiement&lt;/span&gt;" style="rounded=1;whiteSpace=wrap;html=1;" vertex="1" parent="1">
          <mxGeometry x="560" y="530" width="120" height="60" as="geometry" />
        </mxCell>
        <mxCell id="xKRhnp7fP2KBttcFIjON-12" value="Facture Echue" style="rounded=1;whiteSpace=wrap;html=1;" vertex="1" parent="1">
          <mxGeometry x="70" y="530" width="120" height="60" as="geometry" />
        </mxCell>
        <mxCell id="xKRhnp7fP2KBttcFIjON-13" value="Client" style="rounded=1;whiteSpace=wrap;html=1;" vertex="1" parent="1">
          <mxGeometry x="70" y="700" width="120" height="60" as="geometry" />
        </mxCell>
        <mxCell id="xKRhnp7fP2KBttcFIjON-15" value="Facture&amp;nbsp;&lt;span style=&quot;font-size: 12pt; line-height: 24px; font-family: Calibri, sans-serif;&quot; lang=&quot;FR&quot;&gt;Payée&lt;/span&gt;" style="rounded=1;whiteSpace=wrap;html=1;" vertex="1" parent="1">
          <mxGeometry x="310" y="700" width="120" height="60" as="geometry" />
        </mxCell>
      </root>
    </mxGraphModel>
  </diagram>
</mxfile>
